<svg width="133" height="64" viewBox="0 0 133 64" fill="none" xmlns="http://www.w3.org/2000/svg">
<path d="M40.772 49V22.18H50.528C55.928 22.18 59.672 25.312 59.672 30.568C59.672 34.312 57.692 37.012 54.56 38.2L60.752 49H55.928L50.24 38.92H45.02V49H40.772ZM45.02 35.14H50.6C53.516 35.14 55.424 33.34 55.424 30.532C55.424 27.724 53.516 25.96 50.6 25.96H45.02V35.14ZM71.9848 49.432C66.1528 49.432 62.0488 44.968 62.0488 39.208C62.0488 33.376 66.1888 29.092 71.6608 29.092C77.5288 29.092 80.9488 33.484 80.9488 38.524C80.9488 39.136 80.9128 39.856 80.7688 40.432H66.2968C66.5488 43.708 68.9608 45.832 72.0208 45.832C74.3608 45.832 76.0168 44.644 76.9888 42.988L80.3008 44.608C79.1128 47.38 75.9448 49.432 71.9848 49.432ZM71.6608 32.512C69.0328 32.512 66.8728 34.24 66.3688 37.192H76.6288C76.4848 34.42 74.3968 32.512 71.6608 32.512ZM84.919 49V21.748H88.987V49H84.919ZM99.5752 49.432C95.6152 49.432 92.9512 47.236 92.9512 43.852C92.9512 40.72 95.0392 38.416 99.5392 37.66L105.731 36.652V35.896C105.731 33.988 104.183 32.62 101.843 32.62C99.6832 32.62 97.9912 33.844 97.2352 35.644L93.8512 33.952C94.9672 31.108 98.2432 29.092 101.951 29.092C106.559 29.092 109.799 31.864 109.799 35.896V49H105.911V46.732C104.435 48.46 102.275 49.432 99.5752 49.432ZM97.1992 43.708C97.1992 45.184 98.4592 46.228 100.223 46.228C103.499 46.228 105.731 43.888 105.731 40.9V39.856L100.331 40.792C98.1712 41.152 97.1992 42.196 97.1992 43.708ZM116.284 56.956C115.348 56.956 114.376 56.812 113.584 56.452V52.96C114.16 53.104 115.024 53.248 115.816 53.248C118.048 53.248 118.912 52.276 119.776 50.224L120.316 49L112.576 29.524H116.932L122.404 43.816L127.876 29.524H132.268L123.664 51.124C122.26 54.616 119.992 56.956 116.284 56.956Z" fill="#E3E3E3"/>
<rect y="33.3032" width="4.13003" height="4.13003" fill="#E3E3E3"/>
<rect x="28.0407" y="33.3032" width="4.13003" height="4.13003" fill="#E3E3E3"/>
<rect x="8.23853" y="23.5" width="15.6938" height="23.7365" stroke="#E3E3E3" stroke-width="3"/>
<path d="M19.452 28.7334L12.7186 37.0791V42.2002L19.452 33.9495V28.7334Z" fill="#E3E3E3"/>
</svg>
